<?xml version="1.0" standalone="no"?>
<!DOCTYPE svg PUBLIC "-//W3C//DTD SVG 20010904//EN"
 "http://www.w3.org/TR/2001/REC-SVG-20010904/DTD/svg10.dtd">
<svg version="1.0" xmlns="http://www.w3.org/2000/svg"
 width="294.000000pt" height="300.000000pt" viewBox="0 0 294.000000 300.000000"
 preserveAspectRatio="xMidYMid meet">

<g transform="translate(0.000000,300.000000) scale(0.100000,-0.100000)"
fill="#000000" stroke="none">
<path d="M0 1500 l0 -1500 1470 0 1470 0 0 1500 0 1500 -1470 0 -1470 0 0
-1500z m1747 1440 c204 -49 377 -182 466 -360 38 -77 49 -86 105 -95 129 -19
216 -108 229 -230 16 -150 -86 -285 -227 -302 -46 -5 -54 -10 -65 -37 -17 -39
-8 -46 63 -46 36 0 51 4 46 11 -4 8 1 9 15 4 19 -6 21 -4 16 18 -5 19 -2 25
14 30 17 4 19 2 11 -13 -15 -27 -12 -34 6 -19 15 12 16 0 12 -146 -6 -184 -35
-337 -70 -367 -28 -25 -43 -23 -18 2 12 12 18 24 16 29 -3 4 -44 11 -91 14
-85 6 -99 12 -124 52 l-13 20 6 -20 c5 -17 3 -16 -13 5 -21 27 -26 45 -37 138
-4 39 -11 62 -19 62 -7 0 -41 -9 -76 -21 -83 -26 -225 -35 -315 -19 -38 6 -80
14 -94 16 -22 4 -204 46 -252 58 -9 3 -25 9 -35 14 -10 5 -33 7 -50 5 -28 -3
-32 -1 -26 14 5 14 3 15 -7 6 -9 -8 -21 -7 -49 4 -81 34 -178 87 -218 119 -45
37 -106 131 -117 179 -5 21 2 14 22 -25 20 -38 43 -64 75 -85 42 -28 52 -31
116 -28 40 1 72 -2 72 -7 1 -6 2 -14 3 -19 0 -5 4 -13 8 -17 4 -3 5 4 3 16 -3
13 1 30 8 39 7 9 8 12 1 8 -6 -4 -19 2 -29 13 -10 11 -23 16 -29 13 -20 -13
-44 -10 -39 4 4 10 9 11 19 2 30 -25 12 8 -28 50 l-43 45 47 -41 c110 -98 296
-160 658 -218 304 -48 467 19 516 215 37 147 -7 312 -104 386 -183 140 -578
226 -842 183 -152 -24 -261 -128 -304 -291 -12 -41 -15 -46 -15 -23 0 17 8 49
19 73 10 23 16 42 12 42 -4 0 -2 4 5 8 6 4 13 14 15 22 2 8 11 23 20 34 10 10
15 22 13 26 -3 4 2 13 10 20 10 8 12 18 6 28 -9 15 -3 52 8 52 3 0 7 10 8 23
1 12 4 37 7 55 3 26 1 32 -10 28 -7 -3 -13 0 -11 6 1 6 -4 13 -12 16 -8 3 -11
0 -7 -7 4 -6 3 -11 -1 -11 -5 0 -19 -32 -32 -70 -13 -39 -30 -75 -38 -81 -7
-6 -13 -19 -13 -27 0 -13 -3 -12 -14 3 -13 18 -15 17 -35 -15 -11 -19 -30 -58
-42 -87 -17 -43 -25 -52 -39 -48 -10 3 -21 1 -25 -5 -3 -5 -2 -10 3 -10 5 0 7
-15 5 -32 -3 -25 -2 -30 6 -18 9 12 11 9 12 -15 0 -16 4 -65 7 -107 4 -43 4
-78 0 -78 -5 0 -8 30 -8 67 0 36 -3 64 -6 60 -17 -17 -154 75 -154 104 0 23
13 25 30 4 9 -11 16 -12 30 -3 10 7 16 16 14 20 -3 5 7 6 23 3 18 -4 23 -3 15
2 -7 6 -10 17 -6 26 4 11 -6 31 -26 57 -34 43 -58 105 -37 97 7 -3 11 -10 9
-16 -1 -7 2 -9 8 -6 11 7 -9 38 -35 57 -6 5 -4 8 5 8 13 0 13 1 0 10 -10 6
-11 10 -2 10 6 0 11 3 11 8 -3 19 2 33 11 27 6 -3 7 1 4 9 -3 9 -9 14 -13 12
-4 -3 -7 5 -7 16 0 23 49 58 110 78 48 16 125 7 180 -19 40 -21 40 -21 61 -1
12 11 25 17 28 13 4 -3 7 2 7 11 0 13 5 16 17 12 10 -4 15 -4 11 -1 -8 9 23
45 38 45 7 0 14 3 16 8 2 4 43 26 91 50 161 79 334 100 494 62z m-1112 -550
c3 -5 1 -10 -4 -10 -6 0 -11 5 -11 10 0 6 2 10 4 10 3 0 8 -4 11 -10z m703
-28 c2 -13 10 -26 18 -29 17 -6 17 -17 3 -83 -9 -44 -14 -51 -32 -48 -24 3
-25 12 -13 89 l8 46 -34 5 c-38 6 -45 -1 -54 -58 -3 -22 -9 -46 -13 -53 -11
-17 -41 -2 -41 20 0 11 -7 22 -15 25 -23 9 -19 44 6 44 13 0 23 8 26 21 4 14
12 19 24 16 14 -4 21 1 25 17 5 20 10 22 47 17 34 -5 43 -10 45 -29z m-618 -8
c0 -8 -19 -13 -24 -6 -3 5 1 9 9 9 8 0 15 -2 15 -3z m1249 -140 c24 -5 31 -12
31 -30 0 -15 6 -24 15 -24 9 0 15 -9 15 -25 0 -18 -5 -25 -20 -25 -15 0 -20 7
-20 25 0 20 -6 25 -35 31 -39 7 -50 17 -41 39 6 17 11 18 55 9z m-1011 -40
c-3 -14 -5 -12 -10 9 -3 19 -2 25 4 19 6 -6 8 -18 6 -28z m952 -15 c0 -22 -13
-31 -34 -23 -15 6 -22 35 -10 46 11 12 44 -5 44 -23z m-292 -15 c81 -16 92
-20 91 -38 -2 -45 -15 -71 -34 -68 -20 4 -35 -13 -35 -43 -1 -43 -13 -48 -76
-34 -33 7 -63 15 -67 19 -4 4 -4 25 1 48 9 38 8 41 -14 46 -20 5 -23 11 -18
34 13 61 15 64 37 58 12 -2 64 -13 115 -22z m-633 -34 c13 -27 14 -32 2 -20
-8 8 -18 26 -22 40 -9 32 -2 25 20 -20z m240 -531 c16 0 17 -2 5 -9 -11 -7 -6
-9 15 -5 73 12 513 23 560 14 73 -14 150 -55 190 -101 19 -23 35 -45 35 -50 0
-4 35 -8 78 -9 86 -1 85 -4 -1 -14 -49 -6 -57 -9 -52 -23 33 -83 44 -292 25
-452 -19 -154 -80 -365 -114 -395 -6 -5 -11 -16 -11 -23 0 -20 -79 -142 -91
-142 -7 0 -14 -6 -17 -13 -6 -16 -162 -122 -203 -138 -16 -6 -87 -13 -159 -16
-122 -5 -135 -3 -205 21 -41 15 -97 41 -125 60 -62 41 -134 114 -141 143 -4
13 -10 23 -16 23 -5 0 -5 6 0 17 9 15 41 16 318 16 l309 0 -280 7 c-365 10
-367 10 -401 68 -15 26 -27 52 -27 59 0 9 -4 10 -13 2 -8 -7 -14 -7 -19 1 -3
5 -30 10 -58 10 -39 0 -48 -3 -37 -11 11 -7 4 -8 -25 -4 -31 5 -37 4 -25 -5
12 -9 11 -10 -8 -5 -12 4 -46 -1 -75 -11 -28 -9 -54 -16 -56 -15 -2 2 -7 -2
-10 -8 -12 -19 -12 254 0 324 6 39 13 81 15 95 1 14 3 27 4 30 1 3 2 8 1 13
-1 4 5 22 12 40 7 17 13 41 12 52 0 21 12 35 31 35 6 0 44 -27 85 -59 40 -33
78 -57 83 -54 5 3 6 0 4 -8 -3 -8 1 -25 8 -39 24 -50 54 -156 63 -227 6 -46
16 -79 27 -92 19 -19 19 -18 17 47 -1 37 -4 84 -8 105 -4 29 -2 37 7 32 7 -4
6 -1 -3 7 -32 26 -41 100 -17 146 15 30 30 28 61 -9 15 -18 28 -26 32 -20 3 6
1 11 -5 11 -7 0 -10 6 -7 13 2 6 10 11 17 9 9 -2 11 6 7 27 -4 16 -2 31 3 33
12 4 15 145 6 243 -8 78 5 170 22 162 4 -2 17 6 29 18 16 16 18 22 8 22 -8 0
-15 -3 -15 -7 0 -4 -13 -5 -30 -2 -39 6 -31 16 25 32 25 7 44 15 41 17 -2 2
-23 -1 -46 -7 -23 -6 -44 -9 -47 -7 -8 9 121 36 147 31 14 -3 34 -5 45 -5z
m-205 -33 c0 -2 -17 -16 -37 -31 l-38 -26 35 30 c34 31 40 35 40 27z m1171
-192 c9 -11 23 -14 49 -10 24 4 30 3 20 -4 -25 -16 -66 -11 -85 10 -10 11 -13
20 -8 20 6 0 17 -7 24 -16z m-1354 -251 c-2 -16 -4 -5 -4 22 0 28 2 40 4 28 2
-13 2 -35 0 -50z m16 -568 c-7 -21 -12 -19 -10 4 0 11 5 18 9 15 4 -3 5 -11 1
-19z m-5 -60 c8 -7 15 -28 15 -46 2 -32 0 -34 -29 -31 l-32 3 11 -40 c6 -23
15 -41 19 -41 4 0 8 -11 8 -24 0 -14 5 -28 10 -31 11 -7 3 -53 -13 -73 -8 -11
-17 -2 -38 40 -15 29 -25 56 -22 61 2 4 0 7 -6 7 -5 0 -12 13 -16 30 -8 35
-17 43 -39 34 -13 -5 -14 -9 -4 -21 9 -11 9 -16 -1 -22 -8 -5 -10 -21 -5 -48
6 -37 4 -42 -26 -63 -17 -12 -34 -19 -37 -16 -4 3 0 6 7 6 9 0 7 7 -6 22 -10
12 -14 18 -7 15 6 -4 15 -3 18 3 4 6 1 9 -7 8 -20 -5 -10 33 18 63 34 35 30
40 -17 24 -23 -8 -45 -13 -49 -10 -8 5 -7 55 1 71 3 5 5 22 4 37 -1 25 4 29
50 42 92 26 166 26 193 0z m147 16 c3 -5 1 -12 -4 -15 -5 -3 -11 1 -15 9 -6
16 9 21 19 6z m-131 -139 c21 -41 48 -140 43 -160 -3 -12 -8 -8 -20 19 -9 20
-17 47 -19 60 -2 13 -12 38 -21 56 -9 18 -17 37 -17 43 0 20 20 10 34 -18z
m-234 -149 c0 -7 -9 -17 -19 -22 -15 -9 -20 -7 -24 10 -5 17 -3 18 9 8 21 -17
29 -3 16 26 -7 14 -12 31 -11 38 1 14 28 -42 29 -60z m125 -72 c23 -58 23 -65
8 -87 -19 -30 -39 -31 -54 -3 -8 16 -8 20 1 14 6 -4 2 11 -9 34 -12 23 -24 41
-26 41 -3 0 2 -15 11 -32 16 -30 16 -32 1 -19 -17 14 -23 3 -9 -15 4 -5 -10 9
-30 31 -28 30 -34 43 -26 53 6 7 17 11 23 8 7 -2 18 0 26 5 12 7 12 9 -1 9 -8
0 -2 9 15 20 16 11 33 16 37 12 4 -4 19 -36 33 -71z"/>
<path d="M1090 2746 c-6 -8 -18 -12 -26 -9 -10 4 -12 0 -8 -11 3 -9 10 -16 14
-16 5 0 16 -7 24 -16 9 -8 16 -10 16 -4 0 6 -7 13 -15 16 -11 5 -12 11 -4 25
5 11 15 16 21 13 7 -4 8 -3 4 4 -9 15 -11 15 -26 -2z"/>
<path d="M775 2568 l-40 -43 43 40 c39 36 47 45 39 45 -2 0 -21 -19 -42 -42z"/>
<path d="M1066 2543 c-6 -14 -5 -15 5 -6 7 7 10 15 7 18 -3 3 -9 -2 -12 -12z"/>
<path d="M1155 1929 c-4 -6 -5 -12 -2 -15 2 -3 7 2 10 11 7 17 1 20 -8 4z"/>
<path d="M1118 1831 c12 -10 22 -24 22 -30 0 -13 48 -34 64 -27 7 3 6 5 -1 5
-7 1 -13 9 -14 19 0 10 -3 12 -6 5 -7 -18 -23 -16 -23 2 0 8 5 15 10 15 6 0
10 5 10 11 0 6 -9 9 -20 6 -11 -3 -23 -1 -26 4 -3 5 -12 9 -21 9 -13 0 -12 -4
5 -19z"/>
<path d="M1170 1566 c14 -7 29 -11 34 -8 12 6 -15 22 -39 22 -17 0 -17 -2 5
-14z"/>
<path d="M1149 1543 c-13 -16 -12 -17 4 -4 9 7 17 15 17 17 0 8 -8 3 -21 -13z"/>
<path d="M941 634 c0 -11 3 -14 6 -6 3 7 2 16 -1 19 -3 4 -6 -2 -5 -13z"/>
<path d="M798 303 c7 -3 16 -2 19 1 4 3 -2 6 -13 5 -11 0 -14 -3 -6 -6z"/>
<path d="M640 115 c13 -14 26 -25 28 -25 3 0 -5 11 -18 25 -13 14 -26 25 -28
25 -3 0 5 -11 18 -25z"/>
</g>
</svg>
